<svg width="27" height="18" viewBox="0 0 27 18" fill="none" xmlns="http://www.w3.org/2000/svg">
<path d="M25.3421 16.7895H1.6579C1.28947 16.7895 1 16.5 1 16.1316V1.6579C1 1.28947 1.28947 1 1.6579 1H25.3421C25.7105 1 26 1.28947 26 1.6579V16.1316C26 16.5 25.7105 16.7895 25.3421 16.7895Z" stroke="#7A316F" stroke-miterlimit="10" stroke-linecap="round" stroke-linejoin="round"/>
<path d="M3.63159 14.1579L10.4211 5.60526C10.6842 5.27631 11.1842 5.27631 11.4474 5.60526L18.2369 14.1579" stroke="#7A316F" stroke-miterlimit="10" stroke-linecap="round" stroke-linejoin="round"/>
<path d="M19.0264 10.8816L19.3685 10.3948C19.6316 10.0658 20.1316 10.0658 20.3948 10.3948L23.3685 14.1579" stroke="#7A316F" stroke-miterlimit="10" stroke-linecap="round" stroke-linejoin="round"/>
<path d="M17.171 7.35521C17.8977 7.35521 18.4868 6.76611 18.4868 6.03942C18.4868 5.31273 17.8977 4.72363 17.171 4.72363C16.4443 4.72363 15.8552 5.31273 15.8552 6.03942C15.8552 6.76611 16.4443 7.35521 17.171 7.35521Z" fill="#7A316F"/>
</svg>
