<svg width="21" height="19" viewBox="0 0 21 19" fill="none" xmlns="http://www.w3.org/2000/svg">
<path d="M10.8794 15.3727L5.94545 17.9464C5.59639 18.1242 5.19072 17.8341 5.25676 17.4504L6.20016 12.0036C6.2096 11.9287 6.19073 11.8445 6.13412 11.7977L2.14353 7.94187C1.86051 7.67047 2.02088 7.20253 2.40768 7.14638L7.92659 6.35088C8.00207 6.34152 8.06811 6.29473 8.10584 6.21986L10.5776 1.25971C10.7474 0.913431 11.2474 0.913431 11.4266 1.25971L13.8983 6.21986C13.9361 6.28537 14.0021 6.34152 14.0776 6.35088L19.5965 7.14638C19.9833 7.20253 20.1342 7.67047 19.8607 7.94187L15.8701 11.7977C15.8135 11.8538 15.7851 11.9287 15.804 12.0036L16.7474 17.4504C16.8135 17.8341 16.4078 18.1242 16.0587 17.9464L11.1247 15.3727C11.0398 15.3353 10.9549 15.3353 10.8794 15.3727Z" stroke="#461959" stroke-width="2" stroke-miterlimit="10" stroke-linecap="round" stroke-linejoin="round"/>
</svg>
