<svg width="54" height="51" viewBox="0 0 54 51" fill="none" xmlns="http://www.w3.org/2000/svg">
<path d="M26.6651 41.7364L12.9596 48.8518C11.99 49.3434 10.8631 48.5413 11.0465 47.4805L13.6671 32.4217C13.6933 32.2147 13.6409 31.9818 13.4837 31.8524L2.39869 21.1922C1.61252 20.4419 2.05801 19.1482 3.13244 18.9929L18.4628 16.7936C18.6724 16.7677 18.8558 16.6384 18.9607 16.4314L25.8266 2.71801C26.2983 1.76066 27.6872 1.76066 28.1851 2.71801L35.0509 16.4314C35.1558 16.6125 35.3392 16.7677 35.5488 16.7936L50.8792 18.9929C51.9536 19.1482 52.3729 20.4419 51.6129 21.1922L40.5279 31.8524C40.3707 32.0077 40.2921 32.2147 40.3445 32.4217L42.9651 47.4805C43.1485 48.5413 42.0217 49.3434 41.0521 48.8518L27.3465 41.7364C27.1106 41.6329 26.8748 41.6329 26.6651 41.7364Z" stroke="#AED8CC" stroke-width="3" stroke-miterlimit="10" stroke-linecap="round" stroke-linejoin="round"/>
</svg>
